<svg xmlns="http://www.w3.org/2000/svg" viewBox="0 0 32 32" width="32" height="32">
  <!-- Dégradés pour les deux thèmes -->
  <defs>
    <linearGradient id="navGradient" x1="0%" y1="0%" x2="100%" y2="100%">
      <stop offset="0%" style="stop-color:#ffffff;stop-opacity:1" />
      <stop offset="100%" style="stop-color:#e8f4fd;stop-opacity:1" />
    </linearGradient>
    <linearGradient id="navGradientDark" x1="0%" y1="0%" x2="100%" y2="100%">
      <stop offset="0%" style="stop-color:#4a90e2;stop-opacity:1" />
      <stop offset="100%" style="stop-color:#357abd;stop-opacity:1" />
    </linearGradient>
  </defs>
  
  <!-- Icône calendrier pour navbar -->
  <rect x="4" y="6" width="24" height="20" rx="3" fill="url(#navGradient)" stroke="rgba(255,255,255,0.3)" stroke-width="1"/>
  
  <!-- Anneaux du calendrier -->
  <rect x="9" y="2" width="2" height="8" rx="1" fill="url(#navGradient)"/>
  <rect x="21" y="2" width="2" height="8" rx="1" fill="url(#navGradient)"/>
  
  <!-- Grille du calendrier -->
  <line x1="7" y1="12" x2="25" y2="12" stroke="rgba(0,123,255,0.6)" stroke-width="1"/>
  <line x1="7" y1="16" x2="25" y2="16" stroke="rgba(0,123,255,0.6)" stroke-width="1"/>
  <line x1="7" y1="20" x2="25" y2="20" stroke="rgba(0,123,255,0.6)" stroke-width="1"/>
  
  <!-- Points de dates -->
  <circle cx="10" cy="14" r="1" fill="rgba(0,123,255,0.8)"/>
  <circle cx="16" cy="14" r="1" fill="rgba(0,123,255,0.8)"/>
  <circle cx="22" cy="14" r="1" fill="rgba(0,123,255,0.8)"/>
  <circle cx="10" cy="18" r="1" fill="rgba(0,123,255,0.8)"/>
  <circle cx="16" cy="18" r="1" fill="rgba(0,123,255,0.8)"/>
  <circle cx="22" cy="18" r="1" fill="rgba(0,123,255,0.8)"/>
  <circle cx="10" cy="22" r="1" fill="rgba(0,123,255,0.8)"/>
  <circle cx="16" cy="22" r="1" fill="rgba(0,123,255,0.8)"/>
</svg>
